<?xml version="1.0" encoding="UTF-8" standalone="no"?>
<!-- Created with Inkscape (http://www.inkscape.org/) -->

<svg
   width="4.561739mm"
   height="4.4709063mm"
   viewBox="0 0 4.561739 4.4709063"
   version="1.1"
   id="svg5"
   xml:space="preserve"
   inkscape:version="1.2.1 (9c6d41e410, 2022-07-14)"
   sodipodi:docname="comentarios_tiktok.svg"
   xmlns:inkscape="http://www.inkscape.org/namespaces/inkscape"
   xmlns:sodipodi="http://sodipodi.sourceforge.net/DTD/sodipodi-0.dtd"
   xmlns="http://www.w3.org/2000/svg"
   xmlns:svg="http://www.w3.org/2000/svg"><sodipodi:namedview
     id="namedview7"
     pagecolor="#ffffff"
     bordercolor="#000000"
     borderopacity="0.25"
     inkscape:showpageshadow="2"
     inkscape:pageopacity="0.0"
     inkscape:pagecheckerboard="0"
     inkscape:deskcolor="#d1d1d1"
     inkscape:document-units="mm"
     showgrid="false"
     inkscape:zoom="0.74564394"
     inkscape:cx="315.16383"
     inkscape:cy="118.0188"
     inkscape:window-width="1920"
     inkscape:window-height="1017"
     inkscape:window-x="1912"
     inkscape:window-y="-8"
     inkscape:window-maximized="1"
     inkscape:current-layer="layer2" /><defs
     id="defs2" /><g
     inkscape:label="Capa 1"
     inkscape:groupmode="layer"
     id="layer1"
     transform="translate(-41.22846,-76.54129)"><path
       style="fill:#000000;fill-opacity:1;stroke-width:0.264583"
       d="m 43.501323,81.012196 c 1.003799,-0.489402 1.779467,-1.008256 2.132724,-1.787724 0.353257,-0.779468 0.126401,-2.100533 -0.878179,-2.509088 -1.00458,-0.408555 -2.700407,-0.07409 -3.261817,0.752726 -0.56141,0.826819 -0.106662,1.699109 0.210685,2.04434 0.317347,0.345231 1.231508,0.750927 2.07886,0.747019 -0.09409,0.210964 -0.188182,0.484635 -0.282273,0.752727 z"
       id="path455"
       sodipodi:nodetypes="czzzzcc" /><path
       style="fill:#ffffff;fill-opacity:0.989437;stroke-width:0.264583"
       id="path509"
       sodipodi:type="arc"
       sodipodi:cx="42.434963"
       sodipodi:cy="78.440384"
       sodipodi:rx="0.36068147"
       sodipodi:ry="0.42340869"
       sodipodi:start="6.1784513"
       sodipodi:end="6.1782859"
       sodipodi:arc-type="slice"
       d="m 42.793668,78.39612 a 0.36068147,0.42340869 0 0 1 -0.320983,0.465351 0.36068147,0.42340869 0 0 1 -0.396424,-0.376788 0.36068147,0.42340869 0 0 1 0.320951,-0.465382 0.36068147,0.42340869 0 0 1 0.39645,0.376749 l -0.358699,0.04433 z" /><path
       style="fill:#ffffff;fill-opacity:1;stroke-width:0.264583"
       id="path509-3"
       sodipodi:type="arc"
       sodipodi:cx="43.495464"
       sodipodi:cy="78.441528"
       sodipodi:rx="0.36068147"
       sodipodi:ry="0.42340869"
       sodipodi:start="6.1784513"
       sodipodi:end="6.1782859"
       sodipodi:arc-type="slice"
       d="m 43.854169,78.397264 a 0.36068147,0.42340869 0 0 1 -0.320983,0.465351 0.36068147,0.42340869 0 0 1 -0.396424,-0.376788 0.36068147,0.42340869 0 0 1 0.320951,-0.465382 0.36068147,0.42340869 0 0 1 0.39645,0.376749 l -0.358699,0.04433 z" /><path
       style="fill:#ffffff;fill-opacity:1;stroke-width:0.264583"
       id="path509-9"
       sodipodi:type="arc"
       sodipodi:cx="44.643147"
       sodipodi:cy="78.430443"
       sodipodi:rx="0.36068147"
       sodipodi:ry="0.42340869"
       sodipodi:start="6.1784513"
       sodipodi:end="6.1782859"
       sodipodi:arc-type="slice"
       d="m 45.001852,78.386179 a 0.36068147,0.42340869 0 0 1 -0.320984,0.465351 0.36068147,0.42340869 0 0 1 -0.396423,-0.376788 0.36068147,0.42340869 0 0 1 0.32095,-0.465382 0.36068147,0.42340869 0 0 1 0.39645,0.376749 l -0.358698,0.04433 z" /></g><g
     inkscape:groupmode="layer"
     id="layer2"
     inkscape:label="Capa 2"
     transform="translate(-41.22846,-76.54129)" /></svg>
